<svg xmlns="http://www.w3.org/2000/svg" viewBox="0 0 128 128" role="img" aria-label="AILIS sad sticker">
  <defs>
    <linearGradient id="bg" x1="16" y1="14" x2="112" y2="116" gradientUnits="userSpaceOnUse">
      <stop stop-color="#edf8ff"/>
      <stop offset="1" stop-color="#f8f0ff"/>
    </linearGradient>
  </defs>
  <circle cx="64" cy="64" r="54" fill="url(#bg)"/>
  <path d="M30 43c13-16 39-20 66 4" fill="none" stroke="#8fc8eb" stroke-width="8" stroke-linecap="round"/>
  <path d="M40 62c6-4 12-4 18 0M72 62c6-4 12-4 18 0" fill="none" stroke="#24445b" stroke-width="5" stroke-linecap="round"/>
  <path d="M51 90c8-7 18-7 26 0" fill="none" stroke="#24445b" stroke-width="5" stroke-linecap="round"/>
  <path d="M43 70c-8 11-9 20-1 23 8-3 7-12 1-23zM88 70c-8 11-9 20-1 23 8-3 7-12 1-23z" fill="#73b8e5" opacity=".85"/>
  <circle cx="36" cy="78" r="6" fill="#ffc4d6" opacity=".5"/>
  <circle cx="94" cy="78" r="6" fill="#ffc4d6" opacity=".5"/>
</svg>
