<svg xmlns="http://www.w3.org/2000/svg" viewBox="0 0 128 128" role="img" aria-label="AILIS shy sticker">
  <defs>
    <linearGradient id="bg" x1="18" y1="10" x2="112" y2="122" gradientUnits="userSpaceOnUse">
      <stop stop-color="#fff0f6"/>
      <stop offset="1" stop-color="#eaf8ff"/>
    </linearGradient>
  </defs>
  <circle cx="64" cy="64" r="54" fill="url(#bg)"/>
  <path d="M30 43c10-17 29-25 48-18 9 3 16 8 21 15" fill="none" stroke="#8fc7ea" stroke-width="8" stroke-linecap="round"/>
  <path d="M42 60c5-5 11-5 16 0M72 60c5-5 11-5 16 0" fill="none" stroke="#24445b" stroke-width="5" stroke-linecap="round"/>
  <path d="M58 84c4 3 9 3 13 0" fill="none" stroke="#24445b" stroke-width="5" stroke-linecap="round"/>
  <ellipse cx="38" cy="76" rx="11" ry="8" fill="#ff91bd" opacity=".75"/>
  <ellipse cx="92" cy="76" rx="11" ry="8" fill="#ff91bd" opacity=".75"/>
  <path d="M27 79l-9 8M34 84l-7 12M101 79l9 8M94 84l7 12" stroke="#ff7aaa" stroke-width="4" stroke-linecap="round"/>
  <text x="64" y="113" text-anchor="middle" font-family="Verdana, sans-serif" font-size="12" fill="#73a8c8">AILIS</text>
</svg>
